<?xml version="1.0" encoding="UTF-8" standalone="no"?>
<!-- Created with Inkscape (http://www.inkscape.org/) -->

<svg
   xmlns:dc="http://purl.org/dc/elements/1.1/"
   xmlns:cc="http://creativecommons.org/ns#"
   xmlns:rdf="http://www.w3.org/1999/02/22-rdf-syntax-ns#"
   xmlns:svg="http://www.w3.org/2000/svg"
   xmlns="http://www.w3.org/2000/svg"
   xmlns:sodipodi="http://sodipodi.sourceforge.net/DTD/sodipodi-0.dtd"
   xmlns:inkscape="http://www.inkscape.org/namespaces/inkscape"
   width="230.21596mm"
   height="64.094398mm"
   viewBox="0 0 230.21596 64.094398"
   version="1.1"
   id="svg8"
   sodipodi:docname="Yetamine_logo_transparent.svg"
   inkscape:export-filename="Yetamine_logo_transparent.png"
   inkscape:export-xdpi="11.033119"
   inkscape:export-ydpi="11.033119"
   inkscape:version="0.92.3 (2405546, 2018-03-11)">
  <title
     id="title828">Yetamine</title>
  <defs
     id="defs2" />
  <sodipodi:namedview
     id="base"
     pagecolor="#ffffff"
     bordercolor="#666666"
     borderopacity="1.0"
     inkscape:pageopacity="0"
     inkscape:pageshadow="2"
     inkscape:zoom="0.98994949"
     inkscape:cx="295.69758"
     inkscape:cy="1.707768"
     inkscape:document-units="mm"
     inkscape:current-layer="text3715-5"
     showgrid="false"
     fit-margin-top="10"
     fit-margin-bottom="10"
     fit-margin-right="10"
     fit-margin-left="10"
     inkscape:window-width="1858"
     inkscape:window-height="1061"
     inkscape:window-x="57"
     inkscape:window-y="-5"
     inkscape:window-maximized="1"
     showguides="true"
     inkscape:pagecheckerboard="true" />
  <metadata
     id="metadata5">
    <rdf:RDF>
      <cc:Work
         rdf:about="">
        <dc:format>image/svg+xml</dc:format>
        <dc:type
           rdf:resource="http://purl.org/dc/dcmitype/StillImage" />
        <dc:title>Yetamine</dc:title>
        <dc:creator>
          <cc:Agent>
            <dc:title>Petr Doležal</dc:title>
          </cc:Agent>
        </dc:creator>
        <cc:license
           rdf:resource="http://creativecommons.org/licenses/by-nc-nd/4.0/" />
      </cc:Work>
      <cc:License
         rdf:about="http://creativecommons.org/licenses/by-nc-nd/4.0/">
        <cc:permits
           rdf:resource="http://creativecommons.org/ns#Reproduction" />
        <cc:permits
           rdf:resource="http://creativecommons.org/ns#Distribution" />
        <cc:requires
           rdf:resource="http://creativecommons.org/ns#Notice" />
        <cc:requires
           rdf:resource="http://creativecommons.org/ns#Attribution" />
        <cc:prohibits
           rdf:resource="http://creativecommons.org/ns#CommercialUse" />
      </cc:License>
    </rdf:RDF>
  </metadata>
  <g
     inkscape:label="Graphics"
     inkscape:groupmode="layer"
     id="layer1"
     transform="translate(9.7561911,-50.200453)">
    <g
       aria-label="Yetamine"
       style="font-style:normal;font-variant:normal;font-weight:500;font-stretch:normal;font-size:50.79999924px;line-height:125%;font-family:'Hobo Std';-inkscape-font-specification:'Hobo Std, Medium';font-variant-ligatures:normal;font-variant-caps:normal;font-variant-numeric:normal;font-feature-settings:normal;text-align:start;letter-spacing:0px;word-spacing:0px;writing-mode:lr-tb;text-anchor:start;fill:#000000;fill-opacity:1;stroke:none;stroke-width:0.26458332px;stroke-linecap:butt;stroke-linejoin:miter;stroke-opacity:1"
       id="text3715-5">
      <g
         id="g5384">
        <path
           id="path3845"
           style="font-style:normal;font-variant:normal;font-weight:500;font-stretch:normal;font-size:50.79999924px;font-family:'Hobo Std';-inkscape-font-specification:'Hobo Std, Medium';font-variant-ligatures:normal;font-variant-caps:normal;font-variant-numeric:normal;font-feature-settings:normal;text-align:start;writing-mode:lr-tb;text-anchor:start;stroke-width:0.26458332px"
           d="m 43.31427,104.29485 c 6.096,0 11.0744,-3.7084 11.0744,-10.159998 0,-0.4064 -0.1524,-3.048 -0.9144,-3.048 -0.7112,0 -0.7112,6.35 -9.0424,6.35 -2.54,0 -6.4008,-1.7272 -6.4008,-4.1148 0,-5.2832 16.3576,-2.9972 16.3576,-13.919199 0,-5.9944 -4.7244,-9.144 -10.3124,-9.144 -6.8072,0 -13.614399,6.096 -13.614399,18.389599 0,8.128 3.7592,15.646398 12.852399,15.646398 z m 0.508,-28.041597 c 1.9304,0 4.2672,1.3716 4.2672,3.8608 0,2.590799 -9.2456,4.622799 -9.8552,4.622799 -0.6604,0 -0.9144,-0.5588 -0.9144,-1.1176 0,-2.946399 2.3876,-7.365999 6.5024,-7.365999 z" />
        <path
           id="path3847"
           style="font-style:normal;font-variant:normal;font-weight:500;font-stretch:normal;font-size:50.79999924px;font-family:'Hobo Std';-inkscape-font-specification:'Hobo Std, Medium';font-variant-ligatures:normal;font-variant-caps:normal;font-variant-numeric:normal;font-feature-settings:normal;text-align:start;writing-mode:lr-tb;text-anchor:start;stroke-width:0.26458332px"
           d="m 69.699316,63.604053 c -1.016,0 -6.705599,1.4224 -6.959599,3.3528 -0.254,1.778 -0.4064,4.2672 -1.9812,4.2672 -0.4064,0 -0.762,-0.2032 -0.9652,-0.2032 -1.9304,0 -3.048,0.4572 -3.048,4.318 0,0.9144 -0.0508,1.5748 0.6096,1.5748 0.5588,0 1.0668,-0.6096 1.9812,-0.6096 2.286,0 1.8288,2.6924 1.8288,4.2164 0,0.9652 -0.3048,3.403599 -0.3048,9.651999 0,2.794 0.508,14.122398 2.4384,14.122398 1.1684,0 7.061199,-2.8448 7.061199,-3.6068 0,-0.863598 -2.8448,-3.098798 -2.8448,-16.611598 0,-4.521199 0,-7.772399 2.794,-7.772399 0.9144,0 1.9304,0.4572 2.3368,0.4572 1.0668,0 1.0668,-1.9304 1.0668,-2.6416 0,-1.7272 -0.0508,-3.0988 -1.9812,-3.0988 -0.6604,0 -1.27,0.254 -1.9304,0.254 -0.762,0 -1.016,-0.6096 -1.016,-1.524 0,-0.6096 1.524,-3.7084 1.524,-5.08 0,-0.9652 -0.254,-1.0668 -0.6096,-1.0668 z" />
        <path
           id="path3849"
           style="font-style:normal;font-variant:normal;font-weight:500;font-stretch:normal;font-size:50.79999924px;font-family:'Hobo Std';-inkscape-font-specification:'Hobo Std, Medium';font-variant-ligatures:normal;font-variant-caps:normal;font-variant-numeric:normal;font-feature-settings:normal;text-align:start;writing-mode:lr-tb;text-anchor:start;stroke-width:0.26458332px;fill:#800000"
           d="m 91.354405,93.525252 c 0,2.4892 -0.1016,4.0132 -3.0988,4.0132 -2.692399,0 -5.181599,-1.6764 -5.181599,-4.5212 0,-3.0988 3.1496,-5.6388 6.146799,-5.6388 2.4384,0 2.1336,2.1336 2.1336,3.9116 z m -15.138399,0.6604 c 0,3.048 0.8636,9.347198 13.106399,9.347198 4.5212,0 9.2964,-0.1016 9.2964,-1.1684 0,-1.7272 -0.4064,-3.047998 -0.4064,-5.283198 0,-1.778 -0.1016,-16.814799 -1.1684,-19.761199 -2.5908,-7.112 -9.5504,-7.0612 -11.175999,-7.0612 -4.6736,0 -8.89,2.4384 -8.89,6.1976 0,2.1844 1.778,4.1656 3.4036,4.1656 1.1176,0 0.3556,-4.3688 5.5372,-4.3688 2.235199,0 4.927599,1.3716 4.927599,3.9624 0,1.676399 -1.1684,1.930399 -2.6416,2.184399 -5.689599,0.9652 -11.988799,5.3848 -11.988799,11.7856 z" />
        <path
           id="path3851"
           style="font-style:normal;font-variant:normal;font-weight:500;font-stretch:normal;font-size:50.79999924px;font-family:'Hobo Std';-inkscape-font-specification:'Hobo Std, Medium';font-variant-ligatures:normal;font-variant-caps:normal;font-variant-numeric:normal;font-feature-settings:normal;text-align:start;writing-mode:lr-tb;text-anchor:start;stroke-width:0.26458332px"
           d="m 110.07579,103.53285 c 0.5588,0 1.4732,0.1524 1.4732,-0.7112 0,-1.4224 -1.4224,-3.352798 -1.4224,-13.563598 0,-7.569199 1.4224,-12.242799 5.2324,-12.242799 4.1656,0 4.1656,7.162799 4.1656,10.210799 0,4.826 -1.9304,15.036798 -1.9304,15.798798 0,0.7112 0.8128,0.508 1.778,0.508 h 4.572 c 1.6256,0 1.8796,-0.0508 1.8796,-18.287998 0,-8.381999 1.6764,-8.229599 3.4544,-8.229599 1.9304,0 5.3848,1.016 5.3848,10.718799 0,8.4836 -1.9304,14.071598 -1.9304,14.985998 0,0.9144 1.4224,0.8128 1.9304,0.8128 h 3.4544 c 1.4732,0 3.4036,1.7272 3.4036,-13.766798 0,-6.5024 0.2032,-18.745199 -9.144,-18.745199 -1.8288,0 -3.4036,0.7112 -4.6736,1.4224 -1.27,0.762 -2.286,0.9144 -2.9972,0.9144 -1.27,0 -2.8956,-2.3368 -5.3848,-2.3368 -2.1336,0 -3.6576,0.5588 -4.7752,1.1684 -1.1176,0.5588 -1.8288,1.1684 -2.4384,1.1684 -0.508,0 -1.016,-0.3556 -1.016,-0.8636 0,-0.7112 0.6096,-1.6764 0.6096,-2.286 0,-0.762 -1.1176,-0.8128 -2.1844,-0.8128 -6.9088,0 -6.2484,-0.6604 -6.2484,20.726399 0,15.036798 1.0668,13.411198 2.794,13.411198 z" />
        <g
           id="g5370">
          <path
             style="font-style:normal;font-variant:normal;font-weight:500;font-stretch:normal;font-size:50.79999924px;font-family:'Hobo Std';-inkscape-font-specification:'Hobo Std, Medium';font-variant-ligatures:normal;font-variant-caps:normal;font-variant-numeric:normal;font-feature-settings:normal;text-align:start;writing-mode:lr-tb;text-anchor:start;stroke-width:0.26458332px"
             d="m 152.3771,103.53285 c 1.1684,0 2.6924,0.3048 2.6924,-1.3208 0,-0.4572 -1.9812,-8.331198 -1.9812,-21.132797 0,-5.5372 0.6096,-7.4168 0.6096,-9.2964 0,-0.6096 -0.0508,-0.762 -2.1844,-0.762 h -2.794 c -1.6764,0 -2.4892,-1.6764 -2.4892,15.697199 0,17.881598 0.2032,16.814798 2.6924,16.814798 z"
             id="path4667" />
          <path
             style="font-style:normal;font-variant:normal;font-weight:500;font-stretch:normal;font-size:50.79999924px;font-family:'Hobo Std';-inkscape-font-specification:'Hobo Std, Medium';font-variant-ligatures:normal;font-variant-caps:normal;font-variant-numeric:normal;font-feature-settings:normal;text-align:start;writing-mode:lr-tb;text-anchor:start;stroke-width:0.26458332px;fill:#800000"
             d="m 150.7007,67.058453 c 2.032,0 3.9116,-1.1684 3.9116,-3.3528 0,-2.1844 -1.8796,-3.5052 -3.9116,-3.5052 -2.032,0 -3.9116,1.3208 -3.9116,3.5052 0,2.1844 1.8796,3.3528 3.9116,3.3528 z"
             id="path3853" />
        </g>
        <path
           id="path3855"
           style="font-style:normal;font-variant:normal;font-weight:500;font-stretch:normal;font-size:50.79999924px;font-family:'Hobo Std';-inkscape-font-specification:'Hobo Std, Medium';font-variant-ligatures:normal;font-variant-caps:normal;font-variant-numeric:normal;font-feature-settings:normal;text-align:start;writing-mode:lr-tb;text-anchor:start;stroke-width:0.26458332px"
           d="m 179.79006,103.53285 c 1.7272,0 3.302,1.016 3.302,-18.948398 0,-13.360399 -5.8928,-13.563599 -7.3152,-13.563599 -3.2512,0 -5.588,2.0828 -6.4516,2.0828 -0.508,0 -0.762,-0.4572 -0.762,-0.9652 0,-0.7112 0.4572,-1.3208 0.4572,-1.8288 0,-1.1684 -1.8288,-0.9144 -3.6068,-0.9144 -3.9116,0 -5.6896,-1.4224 -5.6896,21.589999 0,13.411198 0.762,12.547598 2.6416,12.547598 h 4.318 c 0.508,0 1.3716,0.0508 1.3716,-0.6604 0,-0.6096 -1.4732,-8.432798 -1.4732,-14.528798 0,-10.058399 3.9624,-11.328399 5.8928,-11.328399 3.4544,0 3.7592,4.5212 3.7592,8.127999 0,10.3124 -2.5908,17.068798 -2.5908,17.576798 0,0.9652 1.1176,0.8128 1.778,0.8128 z" />
        <path
           id="path3857"
           style="font-style:normal;font-variant:normal;font-weight:500;font-stretch:normal;font-size:50.79999924px;font-family:'Hobo Std';-inkscape-font-specification:'Hobo Std, Medium';font-variant-ligatures:normal;font-variant-caps:normal;font-variant-numeric:normal;font-feature-settings:normal;text-align:start;writing-mode:lr-tb;text-anchor:start;stroke-width:0.26458332px"
           d="m 199.38536,104.29485 c 6.096,0 11.0744,-3.7084 11.0744,-10.159998 0,-0.4064 -0.1524,-3.048 -0.9144,-3.048 -0.7112,0 -0.7112,6.35 -9.0424,6.35 -2.54,0 -6.4008,-1.7272 -6.4008,-4.1148 0,-5.2832 16.3576,-2.9972 16.3576,-13.919199 0,-5.9944 -4.7244,-9.144 -10.3124,-9.144 -6.80719,0 -13.61439,6.096 -13.61439,18.389599 0,8.128 3.7592,15.646398 12.85239,15.646398 z m 0.508,-28.041597 c 1.9304,0 4.2672,1.3716 4.2672,3.8608 0,2.590799 -9.2456,4.622799 -9.8552,4.622799 -0.66039,0 -0.91439,-0.5588 -0.91439,-1.1176 0,-2.946399 2.38759,-7.365999 6.50239,-7.365999 z" />
        <g
           id="g5366">
          <path
             d="m 25.085008,61.267253 c -0.711199,0 -2.031999,-0.2032 -2.031999,0.8636 0,0.4064 0.4572,2.54 0.4572,4.1656 0,6.0452 -5.7912,14.0716 -7.2644,14.0716 -1.524,0 -6.5024003,-6.5532 -6.5024003,-13.8176 0,-0.8636 0.4572003,-3.556 0.4572003,-3.9624 0,-1.4224 -1.9304003,-1.3208 -2.8956002,-1.3208 h -4.064 c -2.28599995,0 -2.99719994,0.0508 -2.99719994,3.8608 0,13.462 11.58240014,21.437599 11.58240014,23.215599 0,1.7272 -3.4036003,6.1468 -3.4036003,12.242798 0,1.016 0.2032,2.9464 1.5748,2.9464 h 5.8928003 c 0.762,0 2.3368,0.1016 2.3368,-0.9652 0,-1.0668 -0.3048,-2.1336 -0.3048,-3.251198 0,-16.0528 13.411199,-19.354799 13.411199,-35.356799 0,-1.9812 -0.4064,-2.6924 -2.4384,-2.6924 z"
             style="font-style:normal;font-variant:normal;font-weight:500;font-stretch:normal;font-size:50.79999924px;font-family:'Hobo Std';-inkscape-font-specification:'Hobo Std, Medium';font-variant-ligatures:normal;font-variant-caps:normal;font-variant-numeric:normal;font-feature-settings:normal;text-align:start;writing-mode:lr-tb;text-anchor:start;stroke-width:0.26458332px"
             id="path3843" />
          <path
             style="font-style:normal;font-variant:normal;font-weight:500;font-stretch:normal;font-size:50.79999924px;line-height:125%;font-family:'Hobo Std';-inkscape-font-specification:'Hobo Std, Medium';font-variant-ligatures:normal;font-variant-caps:normal;font-variant-numeric:normal;font-feature-settings:normal;text-align:start;letter-spacing:0px;word-spacing:0px;writing-mode:lr-tb;text-anchor:start;fill:#800000;fill-opacity:1;stroke:none;stroke-width:0.26458332px;stroke-linecap:butt;stroke-linejoin:miter;stroke-opacity:1"
             d="m 16.703493,70.951684 c 2.032,0 3.9116,-1.1684 3.9116,-3.3528 0,-2.1844 -1.8796,-3.5052 -3.9116,-3.5052 -2.032,0 -3.9116,1.3208 -3.9116,3.5052 0,2.1844 1.8796,3.3528 3.9116,3.3528 z"
             id="path3853-4"
             inkscape:connector-curvature="0" />
        </g>
      </g>
    </g>
  </g>
</svg>
